<svg xmlns="http://www.w3.org/2000/svg" viewBox="0 0 900 560" role="img" aria-labelledby="title desc">
  <title id="title">Wallbox e carregador elétrico</title>
  <desc id="desc">Ilustração futurista de Wallbox de parede carregando um veículo elétrico.</desc>
  <defs>
    <linearGradient id="wallbox-bg" x1="0" x2="1" y1="0" y2="1">
      <stop offset="0" stop-color="#f9fff5"/>
      <stop offset="1" stop-color="#f6e88b"/>
    </linearGradient>
    <linearGradient id="wallbox-green" x1="0" x2="1">
      <stop offset="0" stop-color="#1f8a4c"/>
      <stop offset="1" stop-color="#83c341"/>
    </linearGradient>
  </defs>
  <rect width="900" height="560" fill="url(#wallbox-bg)"/>
  <rect x="0" y="382" width="900" height="178" fill="#dfe8da"/>
  <path d="M74 142h752v250H74z" fill="#ffffff"/>
  <path d="M110 180h220v118H110z" fill="#d9e4d4"/>
  <path d="M110 298h220l-46 52H154z" fill="#cbd9c5"/>
  <rect x="664" y="128" width="112" height="238" rx="28" fill="#f8fbf5" stroke="#d1dfcf" stroke-width="8"/>
  <rect x="694" y="174" width="52" height="68" rx="10" fill="url(#wallbox-green)"/>
  <circle cx="720" cy="278" r="20" fill="#ffd84d"/>
  <path d="M771 295c72 2 86 68 42 99-35 25-92 13-110-29" fill="none" stroke="#23352e" stroke-width="16" stroke-linecap="round"/>
  <path d="M698 363c-62 64-151 86-250 55" fill="none" stroke="#23352e" stroke-width="12" stroke-linecap="round"/>
  <path d="M102 365c29-82 120-130 248-130h56c126 0 216 47 267 130l25 40H76z" fill="#f7f9f4" stroke="#26333a" stroke-width="10" stroke-linejoin="round"/>
  <path d="M167 337c40-55 102-82 185-82h44c84 0 145 27 185 82z" fill="#6c8f7c"/>
  <path d="M214 337c29-34 72-51 130-51h22v51z" fill="#f8fbf5"/>
  <path d="M390 286h18c58 0 102 17 132 51H390z" fill="#f8fbf5"/>
  <rect x="145" y="340" width="480" height="84" rx="42" fill="#f7f9f4"/>
  <path d="M152 382h110" stroke="#ffd84d" stroke-width="9" stroke-linecap="round"/>
  <rect x="520" y="354" width="44" height="27" rx="13" fill="#ffd84d"/>
  <path d="M564 368h38" stroke="#ffd84d" stroke-width="9" stroke-linecap="round"/>
  <circle cx="216" cy="424" r="52" fill="#1e2b2b"/>
  <circle cx="216" cy="424" r="25" fill="#94a39a"/>
  <circle cx="216" cy="424" r="9" fill="#eff7ea"/>
  <circle cx="548" cy="424" r="52" fill="#1e2b2b"/>
  <circle cx="548" cy="424" r="25" fill="#94a39a"/>
  <circle cx="548" cy="424" r="9" fill="#eff7ea"/>
  <path d="M116 494h668" stroke="#c4d1c0" stroke-width="10" stroke-linecap="round"/>
</svg>
