<svg xmlns="http://www.w3.org/2000/svg" viewBox="0 0 900 560" role="img" aria-labelledby="title desc">
  <title id="title">Wallbox e carregador elétrico</title>
  <desc id="desc">Ilustração de Wallbox instalado na parede para carregamento de veículo elétrico.</desc>
  <rect width="900" height="560" fill="#eff7ea"/>
  <rect x="0" y="390" width="900" height="170" fill="#dce7d7"/>
  <rect x="74" y="130" width="752" height="268" rx="8" fill="#ffffff"/>
  <rect x="110" y="166" width="210" height="132" rx="6" fill="#d9e4d4"/>
  <path d="M110 298h210l-42 54H152z" fill="#cbd9c5"/>
  <rect x="560" y="174" width="132" height="178" rx="24" fill="#fbfdf8" stroke="#c6d7c2" stroke-width="7"/>
  <rect x="596" y="212" width="60" height="52" rx="9" fill="#ffd84d"/>
  <circle cx="626" cy="304" r="18" fill="#26824a"/>
  <path d="M689 303c72 10 92 88 35 125-43 28-104 6-111-46" fill="none" stroke="#23352e" stroke-width="14" stroke-linecap="round"/>
  <path d="M612 382c-42 36-92 50-145 29" fill="none" stroke="#23352e" stroke-width="10" stroke-linecap="round"/>
  <circle cx="210" cy="417" r="43" fill="#1d2d28"/>
  <circle cx="210" cy="417" r="18" fill="#94a39a"/>
  <rect x="158" y="333" width="310" height="70" rx="34" fill="#26333a"/>
  <rect x="195" y="307" width="188" height="56" rx="28" fill="#f8fbf5"/>
</svg>
